<svg width="35" height="14" viewBox="0 0 35 14" fill="none" xmlns="http://www.w3.org/2000/svg">
<path d="M29.8576 5.69731L28.1632 9.04509C28.0623 9.29097 27.8923 9.54256 27.7084 9.7349C26.3807 11.1305 25.35 8.44633 24.2915 5.68977C22.9258 2.13308 21.5138 -1.54405 19.358 3.26673C19.029 3.89975 18.7035 4.67751 18.3739 5.46547C17.3306 7.95899 16.2446 10.5546 14.8669 8.98834C14.6771 8.77221 14.5347 8.5184 14.424 8.25269C11.4436 1.11444 10.039 2.79559 8.17909 5.02172C7.37024 5.98984 6.47528 7.06102 5.32715 7.55472C5.33045 7.57364 5.33285 7.58398 5.33521 7.59415C5.3378 7.6053 5.34034 7.61623 5.34395 7.638C6.30485 7.30488 7.05517 6.94201 7.90831 5.78698C10.1831 2.42721 11.3527 4.84656 12.5386 7.29968C13.2673 8.807 14.0021 10.3271 15.0033 10.5271C16.3891 10.9877 17.2647 8.87551 18.1654 6.70297C18.7418 5.31246 19.3285 3.89722 20.0658 3.11603C20.2289 2.94352 20.4434 2.81662 20.6797 2.79382C21.9582 2.67491 22.7965 5.06499 23.6152 7.39935C24.8787 11.0016 26.0956 14.4711 28.8117 8.38356L28.8137 8.37861L28.8334 8.33201C29.1141 7.69765 29.5542 6.55058 29.8754 5.71392L29.8576 5.69731Z" fill="#BBFF00"/>
<path d="M17.5535 9.52769C14.609 10.2003 11.6062 10.7385 8.63827 11.0633L8.63826 11.0633C7.45753 11.1934 6.27449 11.2884 5.11425 11.3039C4.2724 11.3154 3.41394 11.2952 2.65455 11.1425L2.65455 11.1425C2.42099 11.0956 2.18114 11.0319 1.98048 10.9403C1.77957 10.8487 1.61958 10.7299 1.54335 10.5738L1.54334 10.5738C1.47078 10.4255 1.49112 10.2641 1.56977 10.102C1.64849 9.93979 1.78508 9.77803 1.94253 9.63053L1.94254 9.63052C2.42313 9.17887 3.09203 8.79705 3.75167 8.45703C4.71405 7.96127 5.74473 7.53088 6.78694 7.13201C9.60826 6.05337 12.5743 5.19212 15.545 4.45392C18.6221 3.68956 21.774 3.08902 24.8948 2.69251L24.8934 2.68144M17.5535 9.52769L15.5626 4.43804C16.3971 4.23683 17.2338 4.04437 18.0712 3.85883C18.2328 3.82304 18.3945 3.78756 18.5564 3.75242C20.6611 3.31053 22.7843 2.9494 24.8934 2.68144M17.5535 9.52769C17.5831 9.52062 17.6162 9.5128 17.6496 9.50491C17.7499 9.4813 17.8539 9.45714 17.8801 9.45104L17.8838 9.44317L17.8854 9.44982C18.6604 9.26846 19.4336 9.07467 20.2033 8.87314C23.0532 8.12731 25.9058 7.26533 28.5883 6.1747C29.5454 5.78561 30.492 5.3648 31.3533 4.874C31.9207 4.55107 32.5086 4.17544 32.8441 3.7425C32.9633 3.58876 33.0331 3.43242 33.0411 3.28574C33.049 3.13957 32.9955 3.00183 32.8654 2.8842C32.706 2.74003 32.4751 2.63882 32.214 2.56515C31.953 2.49153 31.6629 2.4457 31.386 2.41164C30.5211 2.30605 29.59 2.31409 28.6672 2.35292M17.5535 9.52769L31.3873 2.40056C30.5215 2.29486 29.5897 2.30294 28.6667 2.34177M24.8934 2.68144C26.1547 2.52126 27.4191 2.39604 28.6667 2.34177M24.8934 2.68144L24.8948 2.69251C26.1559 2.53235 27.42 2.40717 28.6672 2.35292M28.6667 2.34177L28.6671 2.35292C28.6671 2.35292 28.6671 2.35292 28.6672 2.35292M28.6667 2.34177L28.6672 2.35292M30.8536 2.10106L30.8535 2.11222L30.8536 2.10106C29.7181 2.08923 28.5507 2.16763 27.3879 2.28207C24.2829 2.58633 21.1491 3.15414 18.0664 3.83704C14.7044 4.58195 11.354 5.43829 8.10837 6.5257C6.8485 6.94805 5.60203 7.40439 4.40192 7.91991C3.5034 8.30545 2.60988 8.72701 1.82929 9.22526C1.58481 9.38123 1.3313 9.55551 1.11693 9.74318C0.902692 9.93072 0.726689 10.1324 0.63827 10.3433C0.565179 10.5177 0.577713 10.6772 0.656179 10.815C0.734365 10.9524 0.877371 11.0672 1.0634 11.1547C1.59003 11.4035 2.32502 11.4759 3.00936 11.5124L3.00937 11.5124C4.04722 11.5669 5.1303 11.5181 6.20677 11.4351C9.20425 11.2043 12.2504 10.6883 15.2406 10.0639C16.0184 9.90091 16.7944 9.72838 17.5693 9.55104C17.5996 9.54418 17.633 9.53657 17.6664 9.52892C17.7771 9.50359 17.8882 9.47778 17.8906 9.47722L17.8912 9.47981L17.8927 9.47675C21.1252 8.72618 24.3442 7.86038 27.4457 6.76227C28.6227 6.34489 29.7872 5.89473 30.8952 5.38059C31.6945 5.00955 32.4964 4.60061 33.1492 4.11187C33.3495 3.96181 33.5519 3.79137 33.7043 3.6117C33.8564 3.43225 33.96 3.24209 33.9598 3.05271C33.9595 2.87328 33.8592 2.72856 33.7066 2.6135C33.554 2.49852 33.3479 2.41217 33.1329 2.34909C32.4578 2.15118 31.6394 2.10979 30.8536 2.10106Z" fill="#BBFF00" stroke="#BBFF00" stroke-width="0.0223165"/>
</svg>
